<svg width="1024" height="40" viewBox="0 0 1024 40" fill="none" xmlns="http://www.w3.org/2000/svg">
<g clip-path="url(#clip0_23_1037)">
<g clip-path="url(#clip1_23_1037)">
<path d="M13.5215 23.4844L15.709 12.7812H18.1602L14.8789 27H12.5156L9.81055 16.6191L7.04688 27H4.67383L1.39258 12.7812H3.84375L6.05078 23.4648L8.76562 12.7812H10.8359L13.5215 23.4844ZM18.9805 21.6191C18.9805 20.584 19.1855 19.653 19.5957 18.8262C20.0059 17.9928 20.582 17.3548 21.3242 16.9121C22.0664 16.4629 22.9193 16.2383 23.8828 16.2383C25.3086 16.2383 26.4642 16.6973 27.3496 17.6152C28.2415 18.5332 28.7233 19.7507 28.7949 21.2676L28.8047 21.8242C28.8047 22.8659 28.6029 23.7969 28.1992 24.6172C27.8021 25.4375 27.2292 26.0723 26.4805 26.5215C25.7383 26.9707 24.8789 27.1953 23.9023 27.1953C22.4115 27.1953 21.2168 26.7005 20.3184 25.7109C19.4264 24.7148 18.9805 23.39 18.9805 21.7363V21.6191ZM21.3535 21.8242C21.3535 22.9115 21.5781 23.7643 22.0273 24.3828C22.4766 24.9948 23.1016 25.3008 23.9023 25.3008C24.7031 25.3008 25.3249 24.9883 25.7676 24.3633C26.2168 23.7383 26.4414 22.8236 26.4414 21.6191C26.4414 20.5514 26.2103 19.7051 25.748 19.0801C25.2923 18.4551 24.6706 18.1426 23.8828 18.1426C23.1081 18.1426 22.4928 18.4518 22.0371 19.0703C21.5814 19.6823 21.3535 20.6003 21.3535 21.8242ZM36.3438 18.6016C36.0312 18.5495 35.709 18.5234 35.377 18.5234C34.2897 18.5234 33.5573 18.9401 33.1797 19.7734V27H30.8066V16.4336H33.0723L33.1309 17.6152C33.7038 16.6973 34.498 16.2383 35.5137 16.2383C35.8522 16.2383 36.1322 16.2839 36.3535 16.375L36.3438 18.6016ZM41.2754 22.4688L40.2207 23.5527V27H37.8477V12H40.2207V20.6523L40.9629 19.7246L43.8828 16.4336H46.7344L42.8086 20.8379L47.1543 27H44.4102L41.2754 22.4688Z" fill="#B3BAC5"/>
<path d="M59.5 21.65L68.65 30.5L77.5 21.65" stroke="#C4C4C4"/>
<path d="M68.65 9.34998V30.65" stroke="#C4C4C4"/>
</g>
<g clip-path="url(#clip2_23_1037)">
<g clip-path="url(#clip3_23_1037)">
<g clip-path="url(#clip4_23_1037)">
<path d="M441.499 17.4611C441.499 16.3212 441.133 15.2504 440.434 14.3178C440.701 13.4197 440.767 12.2798 440.701 10.9672C440.667 10.4145 440.235 10 439.702 10C439.403 10 436.874 10.0345 435.41 11.3817C434.146 11.1399 432.815 11.1399 431.518 11.3817C430.087 10.0345 427.558 10 427.226 10C426.693 10 426.261 10.4145 426.227 10.9672C426.128 12.2798 426.227 13.4197 426.494 14.3178C425.795 15.285 425.429 16.3558 425.429 17.4611C425.429 19.8791 427.226 22.0553 429.954 23.0915C429.854 23.2988 429.788 23.5406 429.721 23.7824C426.826 23.4715 425.462 20.7427 425.396 20.639C425.163 20.1209 424.564 19.9136 424.065 20.19C423.566 20.4318 423.366 21.0535 423.632 21.5717C423.699 21.7444 425.529 25.4404 429.555 25.8549V28.9637C429.555 29.5509 429.987 30 430.553 30H436.375C436.941 30 437.373 29.5509 437.373 28.9637V24.8532C437.373 24.2314 437.24 23.6442 437.007 23.1261C439.702 22.0553 441.499 19.9136 441.499 17.4611Z" fill="white"/>
</g>
</g>
<g clip-path="url(#clip5_23_1037)">
<path d="M476.144 13.0345C472.656 13.0345 469.789 15.8621 469.789 19.3794V29.3104C469.789 29.6897 470.099 30.0001 470.479 30.0001H474.072C474.452 30.0001 474.763 29.6897 474.763 29.3104V19.6552C474.763 18.8966 475.384 18.2759 476.144 18.2759C476.904 18.2759 477.526 18.8966 477.526 19.6552V29.3104C477.526 29.6897 477.837 30.0001 478.217 30.0001H481.809C482.189 30.0001 482.5 29.6897 482.5 29.3104V19.3794C482.5 15.8966 479.668 13.0345 476.144 13.0345Z" fill="white"/>
<path d="M466.783 16.2759H463.191C462.811 16.2759 462.5 16.5862 462.5 16.9655V29.3104C462.5 29.6897 462.811 30 463.191 30H466.783C467.163 30 467.474 29.6897 467.474 29.3104V16.9655C467.474 16.5862 467.163 16.2759 466.783 16.2759Z" fill="white"/>
<path d="M464.987 10C463.605 10 462.5 11.1034 462.5 12.4828C462.5 13.8621 463.605 14.9655 464.987 14.9655C466.369 14.9655 467.474 13.8621 467.474 12.4828C467.474 11.1034 466.369 10 464.987 10Z" fill="white"/>
</g>
<g clip-path="url(#clip6_23_1037)">
<path d="M511.964 30C516.661 30 519.583 26.5392 519.583 22.0742C519.583 20.3908 519.309 18.8708 517.398 18.4142C517.863 17.1408 519.205 13.4575 519.205 12.2775C519.205 11.2383 518.58 10.3675 517.466 10.3675C515.69 10.3675 514.098 15.5117 513.6 16.7383C513.214 15.625 511.408 10 509.815 10C508.578 10 507.997 10.8942 507.997 12.0192C507.997 13.3983 509.358 16.9725 509.851 18.3475C509.601 18.2575 509.33 18.1792 509.054 18.1792C508.123 18.1792 507.132 19.3158 507.132 20.2342C507.132 20.5817 507.327 21.07 507.45 21.3942C505.982 21.785 505.417 22.7458 505.417 24.195C505.413 27.015 508.136 30 511.964 30V30ZM515.989 14.2192C516.149 13.7383 516.829 11.7075 517.466 11.7075C517.808 11.7075 517.9 12.055 517.9 12.3325C517.9 13.0783 516.364 17.2 516.025 18.1133L514.672 17.8792L515.989 14.2192ZM509.247 11.8875V11.8867C509.247 11.4217 509.824 10.1017 511.089 13.7267L512.467 17.645C511.846 17.5942 511.364 17.5275 511.058 17.7C510.624 16.575 509.247 13.0242 509.247 11.8875V11.8875ZM509.155 19.5308L509.156 19.5317C510.322 19.5317 511.827 23.2267 511.827 23.7267C511.827 23.9258 511.632 24.1717 511.405 24.1717C510.573 24.1717 508.343 21.1675 508.343 20.355C508.347 20.0542 508.848 19.5308 509.155 19.5308V19.5308ZM507.815 22.5892C508.268 22.5892 509.976 24.945 509.976 25.445C509.976 25.6367 509.669 25.7692 509.511 25.7692C508.87 25.7692 508.619 25.1633 507.478 23.7617C506.295 24.9217 508.293 27.1558 509.798 27.1558C510.837 27.1558 511.513 26.2108 511.311 25.515C511.458 25.515 511.641 25.5267 511.777 25.4917C511.821 26.55 512.139 27.8117 513.437 27.9017C513.437 27.8667 513.517 27.6242 513.517 27.6125C513.517 26.9325 513.095 26.3392 513.095 25.6475C513.095 24.5417 513.958 23.4717 514.834 22.8467C515.153 22.6125 515.539 22.4675 515.913 22.335C516.299 22.1908 516.709 22.0225 517.003 21.7333C516.958 21.2958 516.776 20.9092 516.33 20.9092C515.228 20.9092 511.53 21.0658 511.53 19.3583C511.53 19.0967 511.534 18.8467 512.223 18.8467C513.509 18.8467 516.773 19.1592 517.728 19.9833C518.448 20.6125 518.696 24.405 516.494 26.8075L516.492 26.8083C515.333 28.0583 513.853 28.7067 512.125 28.7067C509.761 28.7067 507.893 27.4333 506.994 25.2575C506.313 23.5625 507.146 22.5892 507.815 22.5892V22.5892ZM512.566 21.8858C512.953 22.0075 513.351 22.0433 513.749 22.1208C513.454 22.3317 513.193 22.59 512.941 22.8667C512.829 22.535 512.693 22.2108 512.566 21.8858Z" fill="white"/>
</g>
<g clip-path="url(#clip7_23_1037)">
<g clip-path="url(#clip8_23_1037)">
<path d="M562.266 10.3696C561.933 9.97097 561.366 9.87131 560.933 10.1703L559 11.4992C558.1 10.5358 556.833 10.0042 555.466 10.0042C552.766 10.0042 550.533 12.1969 550.533 14.9211C550.533 15.3198 550.566 15.6852 550.666 16.0507C548.333 15.5524 546.933 13.858 546.4 10.8015C546.333 10.4029 546.033 10.1039 545.633 10.0042C545.266 9.90453 544.866 10.0706 544.633 10.3696C544.566 10.4361 539.066 18.0773 547.033 24.5557C546.266 26.1836 543.966 27.5789 543.066 28.044C542.633 28.2434 542.433 28.7085 542.533 29.1736C542.633 29.6387 543.033 29.9377 543.5 29.9377H545.233C555.366 29.9377 559.966 24.9211 560.066 13.6919L562.166 11.6985C562.566 11.3663 562.6 10.7683 562.266 10.3696Z" fill="white"/>
</g>
</g>
<path d="M600.904 13.8804L602.5 12.3377V12H596.972L593.032 21.9099L588.549 12H582.752V12.3377L584.617 14.6055C584.798 14.7731 584.893 15.0181 584.869 15.2648V24.1768C584.927 24.4977 584.823 24.8278 584.6 25.0611L582.5 27.6328V27.9663H588.454V27.6286L586.354 25.0611C586.127 24.8269 586.019 24.5027 586.065 24.1768V16.4682L591.292 27.9705H591.899L596.393 16.4682V25.6312C596.393 25.8728 596.393 25.9225 596.237 26.0808L594.62 27.6615V28H602.463V27.6623L600.905 26.1204C600.768 26.016 600.697 25.8408 600.727 25.6707V14.3301C600.697 14.1592 600.767 13.984 600.904 13.8804Z" fill="white"/>
</g>
<g clip-path="url(#clip9_23_1037)">
<path d="M947.5 21.65L956.65 30.5L965.5 21.65" stroke="#C4C4C4"/>
<path d="M956.65 9.34998V30.65" stroke="#C4C4C4"/>
<path d="M982.336 22.5176L982.609 24.3926L983.01 22.7031L985.822 12.7812H987.404L990.148 22.7031L990.539 24.4219L990.842 22.5078L993.049 12.7812H994.934L991.486 27H989.777L986.848 16.6387L986.623 15.5547L986.398 16.6387L983.361 27H981.652L978.215 12.7812H980.09L982.336 22.5176ZM995.949 21.6191C995.949 20.584 996.151 19.653 996.555 18.8262C996.965 17.9993 997.531 17.3613 998.254 16.9121C998.983 16.4629 999.813 16.2383 1000.74 16.2383C1002.18 16.2383 1003.35 16.7363 1004.23 17.7324C1005.12 18.7285 1005.57 20.0534 1005.57 21.707V21.834C1005.57 22.8626 1005.37 23.7871 1004.97 24.6074C1004.58 25.4212 1004.02 26.056 1003.28 26.5117C1002.55 26.9674 1001.71 27.1953 1000.76 27.1953C999.331 27.1953 998.169 26.6973 997.277 25.7012C996.392 24.7051 995.949 23.3867 995.949 21.7461V21.6191ZM997.766 21.834C997.766 23.0059 998.036 23.9466 998.576 24.6562C999.123 25.3659 999.852 25.7207 1000.76 25.7207C1001.68 25.7207 1002.41 25.3626 1002.95 24.6465C1003.49 23.9238 1003.76 22.9147 1003.76 21.6191C1003.76 20.4603 1003.49 19.5228 1002.93 18.8066C1002.38 18.084 1001.66 17.7227 1000.74 17.7227C999.852 17.7227 999.133 18.0775 998.586 18.7871C998.039 19.4967 997.766 20.5124 997.766 21.834ZM1012.94 18.0547C1012.67 18.0091 1012.37 17.9863 1012.05 17.9863C1010.87 17.9863 1010.06 18.4909 1009.64 19.5V27H1007.83V16.4336H1009.59L1009.62 17.6543C1010.21 16.7103 1011.05 16.2383 1012.14 16.2383C1012.49 16.2383 1012.76 16.2839 1012.94 16.375V18.0547ZM1017.56 22.1074L1016.43 23.2891V27H1014.62V12H1016.43V21.0723L1017.39 19.9102L1020.69 16.4336H1022.88L1018.77 20.8477L1023.36 27H1021.24L1017.56 22.1074Z" fill="#B3BAC5"/>
</g>
</g>
<defs>
<clipPath id="clip0_23_1037">
<rect width="1023" height="40" fill="white" transform="translate(0.5)"/>
</clipPath>
<clipPath id="clip1_23_1037">
<rect width="77" height="40" fill="white" transform="translate(0.5)"/>
</clipPath>
<clipPath id="clip2_23_1037">
<rect width="200" height="40" fill="white" transform="translate(412.5)"/>
</clipPath>
<clipPath id="clip3_23_1037">
<rect width="18" height="20" fill="white" transform="translate(423.5 10)"/>
</clipPath>
<clipPath id="clip4_23_1037">
<rect width="18" height="20" fill="white" transform="translate(423.5 10)"/>
</clipPath>
<clipPath id="clip5_23_1037">
<rect width="20" height="20" fill="white" transform="translate(462.5 10)"/>
</clipPath>
<clipPath id="clip6_23_1037">
<rect width="20" height="20" fill="white" transform="translate(502.5 10)"/>
</clipPath>
<clipPath id="clip7_23_1037">
<rect width="20" height="20" fill="white" transform="translate(542.5 10)"/>
</clipPath>
<clipPath id="clip8_23_1037">
<rect width="20" height="19.9667" fill="white" transform="translate(542.5 9.97131)"/>
</clipPath>
<clipPath id="clip9_23_1037">
<rect width="76" height="40" fill="white" transform="translate(947.5)"/>
</clipPath>
</defs>
</svg>
