<svg xmlns="http://www.w3.org/2000/svg" viewBox="0 0 1200 630" width="1200" height="630">
  <defs>
    <linearGradient id="brand" x1="0" y1="0" x2="1" y2="1">
      <stop offset="0" stop-color="#7c5cff" />
      <stop offset="1" stop-color="#22d3ee" />
    </linearGradient>
    <radialGradient id="glow1" cx="0.2" cy="0.2" r="0.6">
      <stop offset="0" stop-color="#7c5cff" stop-opacity="0.55" />
      <stop offset="1" stop-color="#7c5cff" stop-opacity="0" />
    </radialGradient>
    <radialGradient id="glow2" cx="0.85" cy="0.8" r="0.5">
      <stop offset="0" stop-color="#22d3ee" stop-opacity="0.45" />
      <stop offset="1" stop-color="#22d3ee" stop-opacity="0" />
    </radialGradient>
  </defs>

  <rect width="1200" height="630" fill="#06070d" />
  <rect width="1200" height="630" fill="url(#glow1)" />
  <rect width="1200" height="630" fill="url(#glow2)" />

  <g stroke="#ffffff" stroke-opacity="0.05">
    <path d="M0 90h1200M0 180h1200M0 270h1200M0 360h1200M0 450h1200M0 540h1200" />
    <path d="M100 0v630M240 0v630M380 0v630M520 0v630M660 0v630M800 0v630M940 0v630M1080 0v630" />
  </g>

  <rect x="80" y="78" width="86" height="86" rx="24" fill="url(#brand)" />
  <text x="123" y="136" text-anchor="middle" font-family="Sora, Segoe UI, sans-serif"
        font-size="36" font-weight="800" fill="#06070d">DI</text>

  <text x="80" y="300" font-family="Sora, Segoe UI, sans-serif" font-size="88" font-weight="800"
        fill="#e8ebf7" letter-spacing="-3">David Isea</text>
  <text x="80" y="366" font-family="Sora, Segoe UI, sans-serif" font-size="38" font-weight="600"
        fill="#22d3ee">Full-stack .NET developer</text>
  <text x="80" y="428" font-family="Inter, Segoe UI, sans-serif" font-size="24" fill="#98a2bf">
    Blazor · C# · EF Core · SQL Server · .NET MAUI
  </text>

  <g font-family="JetBrains Mono, monospace" font-size="20" fill="#98a2bf">
    <text x="80" y="530">mydinner.ch</text>
    <text x="300" y="530">inventory-rsy.online</text>
    <text x="620" y="530">arrietagency.com</text>
  </g>

  <rect x="80" y="550" width="1040" height="3" rx="2" fill="url(#brand)" />
</svg>
